<svg xmlns="http://www.w3.org/2000/svg" viewBox="0 0 227.65 134.84"><defs><style>.cls-1{fill:#f2f0ce;}.cls-2{fill:#fff;}</style></defs><g id="Calque_2" data-name="Calque 2"><g id="objects"><path class="cls-1" d="M210.21,85c0-.66.06-1.34.06-2a33.61,33.61,0,0,0-43.7-32c0-.12,0-.24,0-.36a41.58,41.58,0,0,0-81-13.32A32.18,32.18,0,0,0,36.91,64.83a32.76,32.76,0,0,0,.56,6,32.18,32.18,0,0,0,4.66,64H202A25.61,25.61,0,0,0,210.21,85Z"/><path class="cls-2" d="M200.27,76c0-.67.06-1.34.06-2a33.61,33.61,0,0,0-43.7-32.05c0-.12,0-.23,0-.35a41.58,41.58,0,0,0-81-13.33,32.16,32.16,0,0,0-48.15,33.6,32.19,32.19,0,0,0,4.66,64h159.9A25.61,25.61,0,0,0,200.27,76Z"/></g></g></svg>