<svg xmlns="http://www.w3.org/2000/svg" viewBox="0 0 226.92 129.67"><defs><style>.cls-1{fill:#f2f0ce;}.cls-2{fill:#fff;}</style></defs><g id="Calque_2" data-name="Calque 2"><g id="objects"><path class="cls-1" d="M226.58,76.19c0-.71.06-1.41.06-2.12v-.56l-.44,0a47.92,47.92,0,0,0-56.75-38.72A57.66,57.66,0,0,0,63.88,62,36.18,36.18,0,0,0,9.94,93.49v.36a35.82,35.82,0,0,0,35.82,35.82H171c1.38,0,2.74-.07,4.09-.16,1.28.1,2.57.16,3.88.16a47.91,47.91,0,0,0,47.91-47.9A48.89,48.89,0,0,0,226.58,76.19Z"/><path class="cls-2" d="M216.64,67.23c0-.7.05-1.4.05-2.11v-.56l-.43,0a47.92,47.92,0,0,0-56.75-38.73A57.66,57.66,0,0,0,53.93,53,36.17,36.17,0,0,0,0,84.54v.36a35.82,35.82,0,0,0,35.82,35.82H161.1c1.37,0,2.73-.07,4.08-.17,1.29.1,2.58.17,3.89.17A47.9,47.9,0,0,0,217,72.81,48.89,48.89,0,0,0,216.64,67.23Z"/></g></g></svg>