<svg xmlns="http://www.w3.org/2000/svg" viewBox="0 0 236.03 89.89"><defs><style>.cls-1{fill:#f2f0ce;}.cls-2{fill:#fff;}</style></defs><g id="Calque_2" data-name="Calque 2"><g id="objects"><path class="cls-1" d="M236,89.89c0-.11,0-.22,0-.33A27.7,27.7,0,0,0,191,68a38.35,38.35,0,0,0-34.37-21.32,38.91,38.91,0,0,0-4.48.27A26.87,26.87,0,0,0,116.75,33.6a44.61,44.61,0,0,0-84.5,20,45.12,45.12,0,0,0,.8,8.43A28.39,28.39,0,0,0,9.94,89.89Z"/><path class="cls-2" d="M226.08,80.93c0-.11,0-.21,0-.32A27.71,27.71,0,0,0,181,59a38.34,38.34,0,0,0-34.36-21.32,39.22,39.22,0,0,0-4.49.27,26.84,26.84,0,0,0-35.38-13.3A44.6,44.6,0,0,0,23.11,53,28.39,28.39,0,0,0,0,80.93Z"/></g></g></svg>