<svg xmlns="http://www.w3.org/2000/svg" viewBox="0 0 253.41 99.57"><defs><style>.cls-1{fill:#f2f0ce;}.cls-2{fill:#fff;}</style></defs><g id="Calque_2" data-name="Calque 2"><g id="objects"><path class="cls-1" d="M221,72a32.74,32.74,0,0,0-15.76,4,42.62,42.62,0,0,0-35.58-19.12,43.08,43.08,0,0,0-9.91,1.16,56.25,56.25,0,0,0-112,7.14v.17c-1.12-.11-2.25-.17-3.4-.17A34.36,34.36,0,0,0,9.94,99.57H253.41A32.85,32.85,0,0,0,221,72Z"/><path class="cls-2" d="M211.05,63.05a32.64,32.64,0,0,0-15.76,4,42.63,42.63,0,0,0-45.49-18,56.25,56.25,0,0,0-112,7.14v.16c-1.12-.11-2.25-.16-3.4-.16A34.35,34.35,0,0,0,0,90.61H243.47A32.86,32.86,0,0,0,211.05,63.05Z"/></g></g></svg>