<svg xmlns="http://www.w3.org/2000/svg" viewBox="0 0 254.86 155.64"><defs><style>.cls-1{fill:#f2f0ce;}.cls-2{fill:#fff;}</style></defs><g id="Calque_2" data-name="Calque 2"><g id="objects"><path class="cls-1" d="M220.7,44a40,40,0,0,0-19,1.65A40.29,40.29,0,0,0,139.5,17.87a30.21,30.21,0,0,0-46.38,4.27c-.92-.19-1.84-.37-2.78-.52a47,47,0,0,0-52.16,33A29.85,29.85,0,0,0,39,114.28c-.11.52-.21,1-.29,1.58a29.86,29.86,0,0,0,54.93,20.2,40.28,40.28,0,0,0,60.09,10.45,39.73,39.73,0,0,0,6.78,1.66,40.29,40.29,0,0,0,43.75-25.43,37.74,37.74,0,0,0,4.18.87A40.28,40.28,0,0,0,220.7,44Z"/><path class="cls-2" d="M210.75,35a40.22,40.22,0,0,0-19,1.65A40.28,40.28,0,0,0,129.56,8.92a30.19,30.19,0,0,0-46.38,4.27c-.92-.2-1.84-.38-2.78-.52a47,47,0,0,0-52.16,33A29.86,29.86,0,0,0,25.32,105a28.22,28.22,0,0,0,3.75.33c-.1.52-.2,1.05-.28,1.58a29.86,29.86,0,0,0,54.93,20.2,40.28,40.28,0,0,0,60.09,10.46,40.25,40.25,0,0,0,50.53-23.77A40.28,40.28,0,1,0,210.75,35Z"/></g></g></svg>