<svg xmlns="http://www.w3.org/2000/svg" viewBox="0 0 238.94 129.36"><defs><style>.cls-1{fill:#f2f0ce;}.cls-2{fill:#fff;}</style></defs><g id="Calque_2" data-name="Calque 2"><g id="objects"><path class="cls-1" d="M211.74,75a27.06,27.06,0,0,0-11.69,2.66A43.24,43.24,0,0,0,141.19,40,49,49,0,0,0,46.56,56.23h-.05a36.57,36.57,0,1,0,0,73.13H211.74a27.2,27.2,0,0,0,0-54.4Zm-92.18,27.2H117c.67-.33,1.34-.67,2-1C119.16,101.48,119.36,101.82,119.56,102.16Z"/><path class="cls-2" d="M201.79,66a27,27,0,0,0-11.68,2.67A43.24,43.24,0,0,0,131.25,31,49,49,0,0,0,36.61,47.27h0a36.57,36.57,0,0,0,0,73.14H201.79a27.21,27.21,0,1,0,0-54.41ZM109.61,93.2H107c.68-.32,1.35-.66,2-1C109.21,92.52,109.41,92.86,109.61,93.2Z"/></g></g></svg>