<svg xmlns="http://www.w3.org/2000/svg" viewBox="0 0 249.24 119.22"><defs><style>.cls-1{fill:#f2f0ce;}.cls-2{fill:#fff;}</style></defs><g id="Calque_2" data-name="Calque 2"><g id="objects"><path class="cls-1" d="M224.41,69.56a24.22,24.22,0,0,0-2.85.18A36.6,36.6,0,0,0,179,41.14,55.13,55.13,0,0,0,76.72,46.21,32.43,32.43,0,0,0,34.6,77.14c0,.23,0,.47,0,.71a20.86,20.86,0,1,0-3.81,41.37h193.6a24.83,24.83,0,1,0,0-49.66Z"/><path class="cls-2" d="M214.47,60.6a24.53,24.53,0,0,0-2.86.18,36.63,36.63,0,0,0-35.86-29.22,36,36,0,0,0-6.69.63A55.13,55.13,0,0,0,66.78,37.26,32.41,32.41,0,0,0,24.66,68.18c0,.24,0,.47,0,.71a20.87,20.87,0,1,0-3.81,41.38h193.6a24.84,24.84,0,0,0,0-49.67Z"/></g></g></svg>