<svg xmlns="http://www.w3.org/2000/svg" viewBox="0 0 234.57 96.18"><defs><style>.cls-1{fill:#f2f0ce;}.cls-2{fill:#fff;}</style></defs><g id="Calque_2" data-name="Calque 2"><g id="objects"><path class="cls-1" d="M232.51,96.18A23.74,23.74,0,0,0,199,65.91a33.26,33.26,0,0,0-42.14-26.79A43.61,43.61,0,0,0,73,42.39,12.63,12.63,0,0,0,57.84,57.87,28.85,28.85,0,0,0,36,72.55c-.75-.07-1.5-.11-2.27-.11A23.74,23.74,0,0,0,9.94,96.18Z"/><path class="cls-2" d="M222.57,87.22A23.73,23.73,0,0,0,189.07,57a33.26,33.26,0,0,0-42.14-26.8A43.61,43.61,0,0,0,63,33.43,12.6,12.6,0,0,0,47.9,48.91,28.84,28.84,0,0,0,26,63.59c-.75-.07-1.5-.11-2.27-.11A23.74,23.74,0,0,0,0,87.22Z"/></g></g></svg>