<svg xmlns="http://www.w3.org/2000/svg" viewBox="0 0 247.65 110.75"><defs><style>.cls-1{fill:#f2f0ce;}.cls-2{fill:#fff;}</style></defs><g id="Calque_2" data-name="Calque 2"><g id="objects"><path class="cls-1" d="M212.52,40.5a35.38,35.38,0,0,0-4.62.31A44.52,44.52,0,0,0,124.29,36,35.09,35.09,0,0,0,79.45,53.84,28.64,28.64,0,0,0,40.52,69.53a21.59,21.59,0,1,0-9,41.22h181a35.13,35.13,0,1,0,0-70.25Z"/><path class="cls-2" d="M202.58,31.54a35.14,35.14,0,0,0-4.62.31A44.52,44.52,0,0,0,114.35,27,35.14,35.14,0,0,0,69.5,44.88a28.65,28.65,0,0,0-38.92,15.7,21.59,21.59,0,1,0-9,41.21h181a35.13,35.13,0,1,0,0-70.25Z"/></g></g></svg>