<svg xmlns="http://www.w3.org/2000/svg" viewBox="0 0 250.51 124.36"><defs><style>.cls-1{fill:#f2f0ce;}.cls-2{fill:#fff;}</style></defs><g id="Calque_2" data-name="Calque 2"><g id="objects"><path class="cls-1" d="M215,53.23a35.36,35.36,0,0,0-16.47,4.05,33.43,33.43,0,0,0-42.95-14.7,48.72,48.72,0,0,0-94.28,6.49,38.7,38.7,0,1,0-12.61,75.29H215a35.57,35.57,0,0,0,0-71.13Z"/><path class="cls-2" d="M205,44.28a35.35,35.35,0,0,0-16.47,4,33.43,33.43,0,0,0-42.95-14.69,48.72,48.72,0,0,0-94.28,6.49A38.7,38.7,0,1,0,38.7,115.4H205a35.56,35.56,0,0,0,0-71.12Z"/></g></g></svg>