<svg xmlns="http://www.w3.org/2000/svg" viewBox="0 0 258.82 134.78"><defs><style>.cls-1{fill:#f2f0ce;}.cls-2{fill:#fff;}</style></defs><g id="Calque_2" data-name="Calque 2"><g id="objects"><path class="cls-1" d="M239,79.25a39.43,39.43,0,0,0-39.09-34.31h-.37A62.91,62.91,0,0,0,91.56,35.14,44.59,44.59,0,0,0,42,63.14a27.71,27.71,0,1,0,12.29,49.57A44.68,44.68,0,0,0,102,119.88a62.86,62.86,0,0,0,81.08.16,39.44,39.44,0,0,0,38.06-2.48A22.3,22.3,0,1,0,239,79.25Z"/><path class="cls-2" d="M229,70.3A39.42,39.42,0,0,0,189.92,36h-.38A62.9,62.9,0,0,0,81.62,26.18a45.32,45.32,0,0,0-7.86-.7A44.69,44.69,0,0,0,32,54.18a27.71,27.71,0,1,0-4.32,55.09,27.6,27.6,0,0,0,16.61-5.52A44.61,44.61,0,0,0,92,110.92a62.86,62.86,0,0,0,81.08.16,39.39,39.39,0,0,0,38.07-2.48A22.3,22.3,0,1,0,229,70.3Z"/></g></g></svg>