<svg xmlns="http://www.w3.org/2000/svg" viewBox="0 0 256.05 152.64"><defs><style>.cls-1{fill:#f2f0ce;}.cls-2{fill:#fff;}</style></defs><g id="Calque_2" data-name="Calque 2"><g id="objects"><path class="cls-1" d="M229.76,72.49A36.64,36.64,0,0,0,177.33,41,43,43,0,0,0,101,26.61,43,43,0,0,0,38.71,65.12v0a30.47,30.47,0,0,0-3.46-.2,30.09,30.09,0,1,0,11.48,57.91A30.09,30.09,0,0,0,93.21,134.1a57.57,57.57,0,0,0,78,6.14,30.08,30.08,0,0,0,41.46-10.9,30.09,30.09,0,1,0,17.08-56.85Z"/><path class="cls-2" d="M224.6,63.54A36.67,36.67,0,0,0,172.16,32,43,43,0,0,0,95.8,17.66a43,43,0,0,0-62.25,38.5v0a30.47,30.47,0,0,0-3.46-.2,30.09,30.09,0,1,0,11.48,57.91A30.08,30.08,0,0,0,88,125.15a57.57,57.57,0,0,0,78,6.14,30.11,30.11,0,0,0,41.47-10.91A30.09,30.09,0,1,0,224.6,63.54Z"/></g></g></svg>