<svg xmlns="http://www.w3.org/2000/svg" width="80.73" height="119.584" viewBox="0 0 80.73 119.584">
  <path id="Tracé_3" data-name="Tracé 3" d="M731.43,293.65v11.78a2,2,0,0,1-4,0V293.65a16.58,16.58,0,0,0-16.59-16.59,12.23,12.23,0,0,1-10.53-5.91,2,2,0,1,1,3.4-2.07,8.3,8.3,0,0,0,7.13,4,20.56,20.56,0,0,1,20.57,20.57Zm-34.78-20a2,2,0,0,1-1.53,2.37,19.06,19.06,0,0,1-14.83-2.9,12,12,0,0,1-9,3.92,16.58,16.58,0,0,0-16.59,16.59v11.78a2,2,0,0,1-4,0V293.65a20.56,20.56,0,0,1,20.57-20.57,8.31,8.31,0,0,0,8.33-8.31v-.53a26.71,26.71,0,0,1-15.18-23.08,8.13,8.13,0,0,1-6.24-7.88V223c-.11-5.06.64-17.73,9.87-26.64,11.41-11,29.7-10.29,43.15-3.82a2,2,0,0,1,.42,3.32,26.89,26.89,0,0,1,16.47,11.85,2.23,2.23,0,0,1,.46,1.56,2,2,0,0,1-.58,1.27,13,13,0,0,0-3.76,9.19v13.6a2,2,0,0,1-4,0v-13.6a17,17,0,0,1,3.87-10.83,23,23,0,0,0-16.53-9.71l-3.5-.37a2,2,0,0,1-.55-3.83l1.6-.65c-20.76-7.24-43,.8-43,28.63v10.36a4.12,4.12,0,0,0,2.24,3.65V224a14,14,0,0,1,14-13.95h25.41a14,14,0,0,1,14,13.95v16.33a26.69,26.69,0,0,1-34.18,25.42,12.329,12.329,0,0,1-1,4.08,15.09,15.09,0,0,0,11.76,2.32,2,2,0,0,1,2.38,1.52Zm-5.58-10.82a22.7,22.7,0,0,0,22.67-22.68V224a10,10,0,0,0-10-10H678.36a10,10,0,0,0-10,10v16.17a22.7,22.7,0,0,0,22.68,22.68Zm20.18,34.35h-6a2,2,0,0,0,0,4h6a2,2,0,0,0,0-4Z" transform="translate(-650.7 -187.846)" fill="#fff"/>
</svg>
