<svg xmlns="http://www.w3.org/2000/svg" viewBox="0 0 94.21 46.77"><defs><style>.cls-1{fill:#ffe3e7;}.cls-2{fill:#f7c3cb;}</style></defs><g id="Calque_2" data-name="Calque 2"><g id="Calque_1-2" data-name="Calque 1"><path class="cls-1" d="M80.84,20a13.35,13.35,0,0,0-6.2,1.52,12.56,12.56,0,0,0-11.06-6.6A12.71,12.71,0,0,0,58.49,16,18.32,18.32,0,0,0,23,18.46a14.39,14.39,0,0,0-4.75-.8,14.56,14.56,0,0,0,0,29.11H80.84a13.38,13.38,0,0,0,0-26.75Z"/><path class="cls-2" d="M77.1,16.65a13.27,13.27,0,0,0-6.19,1.52,12.57,12.57,0,0,0-16.16-5.52A18.32,18.32,0,0,0,19.3,15.09a14.35,14.35,0,0,0-4.75-.8,14.56,14.56,0,0,0,0,29.11H77.1a13.38,13.38,0,0,0,0-26.75Z"/></g></g></svg>