<svg xmlns="http://www.w3.org/2000/svg" viewBox="0 0 170.37 84.58"><defs><style>.cls-1{fill:#ffe3e7;}.cls-2{fill:#f7c3cb;}</style></defs><g id="Calque_2" data-name="Calque 2"><g id="Calque_1-2" data-name="Calque 1"><path class="cls-1" d="M146.19,36.21A24,24,0,0,0,135,39a22.75,22.75,0,0,0-29.21-10,33.14,33.14,0,0,0-64.12,4.41,26.32,26.32,0,1,0-8.58,51.21H146.19a24.19,24.19,0,0,0,0-48.37Z"/><path class="cls-2" d="M139.43,30.11a24.1,24.1,0,0,0-11.2,2.75A22.76,22.76,0,0,0,99,22.87,33.14,33.14,0,0,0,34.9,27.28a26.32,26.32,0,1,0-8.58,51.21H139.43a24.19,24.19,0,0,0,0-48.38Z"/></g></g></svg>